<?xml version="1.0" encoding="UTF-8"?>
<svg width="32" height="32" viewBox="0 0 32 32" fill="none" xmlns="http://www.w3.org/2000/svg">
  <defs>
    <linearGradient id="shadowGradient" x1="16" y1="0" x2="16" y2="32">
      <stop offset="0%" stop-color="rgba(0,0,0,0.1)"/>
      <stop offset="100%" stop-color="rgba(0,0,0,0.2)"/>
    </linearGradient>

    <linearGradient id="folderGradient" x1="3" y1="7" x2="29" y2="28">
      <stop offset="0%" stop-color="#FFA000"/>
      <stop offset="100%" stop-color="#F57C00"/>
    </linearGradient>

    <linearGradient id="topFolderGradient" x1="4" y1="13" x2="31.2" y2="28">
      <stop offset="0%" stop-color="#FFCA28"/>
      <stop offset="100%" stop-color="#FFB300"/>
    </linearGradient>

    <filter id="edgeShadow" x="-2" y="-2" width="36" height="36">
      <feGaussianBlur in="SourceAlpha" stdDeviation="1"/>
      <feOffset dx="0" dy="0"/>
      <feComposite in2="SourceAlpha" operator="out"/>
      <feColorMatrix values="0 0 0 0 0   0 0 0 0 0   0 0 0 0 0  0 0 0 0.3 0"/>
    </filter>
  </defs>

  <!-- צל קצוות -->
  <path d="M28 10H16L13 7H6C4.34315 7 3 8.34315 3 10V25C3 26.6569 4.34315 28 6 28H26C27.6569 28 29 26.6569 29 25V10Z" 
        filter="url(#edgeShadow)"/>

  <!-- תיקייה תחתונה -->
  <path d="M28 10H16L13 7H6C4.34315 7 3 8.34315 3 10V25C3 26.6569 4.34315 28 6 28H26C27.6569 28 29 26.6569 29 25V10Z" 
        fill="url(#folderGradient)"
        stroke="#B35D00"
        stroke-width="0.8"/>

  <!-- תיקייה פתוחה - עם חקודת חיבור חדשה -->
  <path d="M29.2 13H9.3C7.9 13 6.7 14 6.4 15.3L4 27.2C4 27.2 4.5 28 6 28H26.7C28.1 28 29.3 27 29.6 25.7L31.2 16.3C31.6 14.5 30.6 13 29.2 13Z" 
        fill="url(#topFolderGradient)"
        stroke="#B35D00"
        stroke-width="0.8"/>

  <!-- צל פנימי -->
  <path d="M28 10H16L13 7H6C4.34315 7 3 8.34315 3 10V25C3 26.6569 4.34315 28 6 28H26C27.6569 28 29 26.6569 29 25V10Z" 
        fill="url(#shadowGradient)" fill-opacity="0.15"/>
</svg> 